<svg width="120" height="48" viewBox="0 0 120 48" fill="none" xmlns="http://www.w3.org/2000/svg">
<path d="M20.44 29.72C21.8 29.08 23 28.2 24.04 27.04L29.36 28.8C28.64 29.88 27.8 30.88 26.8 31.76C25.84 32.64 24.8 33.4 23.64 34.04C22.52 34.68 21.32 35.16 20 35.48C18.72 35.84 17.4 36 16 36C11.56 36 7.84 34.4 4.72 31.28C1.6 28.16 0 24.44 0 20C0 15.6 1.56 11.84 4.72 8.72C7.8 5.56 11.56 4 16 4C18.2 4 20.28 4.4 22.24 5.24C24.16 6.08 25.88 7.24 27.36 8.72L23.52 12.48C21.44 10.4 18.96 9.36 16 9.36C13.08 9.36 10.56 10.36 8.44 12.48C6.36 14.56 5.36 17.08 5.36 20C5.36 22.92 6.36 25.48 8.44 27.56C10.52 29.64 13.08 30.64 16 30.64C17.6 30.64 19.08 30.32 20.44 29.72ZM16 22.68V17.36H29.36L24.04 22.68H16ZM48.3469 20.68C47.1069 22.48 45.5469 23.76 43.6669 24.52L50.2269 36H44.1069L34.8269 19.96L39.5869 20C41.0269 20 42.2669 19.48 43.3069 18.44C44.3869 17.4 44.9069 16.12 44.9069 14.64C44.9069 13.2 44.3869 11.96 43.3069 10.92C42.2669 9.88 41.0269 9.36 39.5869 9.36H28.9069L28.3069 8.76L25.5469 4H39.5869C42.5069 4 45.0269 5.04 47.1069 7.12C49.1869 9.24 50.2269 11.72 50.2269 14.64C50.2269 16.88 49.6269 18.88 48.3469 20.68Z" fill="#FF644D"/>
<path d="M72 4C76.44 4 80.16 5.6 83.28 8.72C86.44 11.84 88.04 15.6 88.04 20C88.04 24.44 86.44 28.2 83.28 31.28C80.16 34.4 76.44 36 72 36C67.56 36 63.84 34.4 60.72 31.28C57.6 28.16 56 24.44 56 20C56 15.6 57.6 11.84 60.72 8.72C63.8 5.6 67.56 4 72 4ZM72 9.36C69.08 9.36 66.56 10.36 64.44 12.48C62.36 14.56 61.36 17.08 61.36 20C61.36 22.92 62.36 25.48 64.44 27.56C66.52 29.64 69.08 30.64 72 30.64C74.92 30.64 77.44 29.64 79.52 27.56C81.64 25.44 82.64 22.92 82.64 20C82.64 17.08 81.6 14.56 79.52 12.48C77.44 10.4 74.92 9.36 72 9.36ZM99.9138 30.64H115.914V36H94.5938L99.9138 30.64ZM94.5938 4H99.9138V4.88V23.4L94.5938 28.76V4.88V4Z" fill="white"/>
</svg>
